<?xml version="1.0" standalone="no"?><!DOCTYPE svg PUBLIC "-//W3C//DTD SVG 1.1//EN" "http://www.w3.org/Graphics/SVG/1.1/DTD/svg11.dtd"><svg t="1626246501408" class="icon" viewBox="0 0 1024 1024" version="1.1" xmlns="http://www.w3.org/2000/svg" p-id="2451" xmlns:xlink="http://www.w3.org/1999/xlink" width="120" height="120"><defs><style type="text/css"></style></defs><path d="M586.794667 85.333333c49.408 0 90.026667 37.333333 95.317333 85.333334h75.221333a96 96 0 0 1 95.786667 89.429333L853.333333 266.666667v256a32 32 0 0 1-63.701333 4.352l-0.298667-4.352v-256a32 32 0 0 0-27.648-31.701334L757.333333 234.666667h-90.965333c-17.194667 25.6-46.421333 42.368-79.573333 42.368h-149.589334A95.744 95.744 0 0 1 357.632 234.666667H266.666667a32 32 0 0 0-31.701334 27.648L234.666667 266.666667v576.213333c0 16.213333 12.032 29.568 27.648 31.701333l8.704 0.554667a32 32 0 0 1-4.352 63.744 96 96 0 0 1-95.786667-89.429333L170.666667 842.88V266.666667a96 96 0 0 1 89.429333-95.786667L266.666667 170.666667h75.221333a95.872 95.872 0 0 1 95.317333-85.333334h149.589334z m149.205333 533.333334h42.666667a160 160 0 0 1 8.618666 319.786666l-8.490666 0.213334-42.666667 0.213333a32 32 0 0 1-4.608-63.701333l4.352-0.298667 42.794667-0.213333a96 96 0 0 0 6.570666-191.786667L778.666667 682.666667h-42.666667a32 32 0 0 1-4.352-63.701334l4.352-0.298666h42.666667-42.666667z m-213.333333 0h42.666666a32 32 0 0 1 4.352 63.701333L565.333333 682.666667h-42.666666a96 96 0 0 0-6.570667 191.786666l6.570667 0.213334h42.666666a32 32 0 0 1 4.352 63.701333L565.333333 938.666667h-42.666666a160 160 0 0 1-8.533334-319.786667l8.533334-0.213333h42.666666-42.666666z m0 128h256a32 32 0 0 1 4.352 63.701333L778.666667 810.666667h-256a32 32 0 0 1-4.352-63.701334l4.352-0.298666h256-256z m64.128-597.333334h-149.589334a31.872 31.872 0 1 0 0 63.701334h149.589334a31.872 31.872 0 1 0 0-63.701334z" p-id="2452"></path></svg>