<?xml version="1.0" standalone="no"?><!DOCTYPE svg PUBLIC "-//W3C//DTD SVG 1.1//EN" "http://www.w3.org/Graphics/SVG/1.1/DTD/svg11.dtd"><svg t="1626246312758" class="icon" viewBox="0 0 1024 1024" version="1.1" xmlns="http://www.w3.org/2000/svg" p-id="2092" xmlns:xlink="http://www.w3.org/1999/xlink" width="120" height="120"><defs><style type="text/css"></style></defs><path d="M512 51.2a51.2 51.2 0 0 1 51.2 51.2v51.2a51.2 51.2 0 0 1-102.4 0V102.4a51.2 51.2 0 0 1 51.2-51.2z m325.8368 134.9632a51.2 51.2 0 0 1 0 72.3968l-36.1984 36.1984a51.2 51.2 0 1 1-72.3968-72.3968l36.1984-36.1984a51.2 51.2 0 0 1 72.3968 0zM972.8 512a51.2 51.2 0 0 1-51.2 51.2h-51.2a51.2 51.2 0 0 1 0-102.4h51.2a51.2 51.2 0 0 1 51.2 51.2z m-134.9632 325.8368a51.2 51.2 0 0 1-72.3968 0l-36.1984-36.1984a51.2 51.2 0 1 1 72.3968-72.3968l36.1984 36.1984a51.2 51.2 0 0 1 0 72.3968zM512 972.8a51.2 51.2 0 0 1-51.2-51.2v-51.2a51.2 51.2 0 0 1 102.4 0v51.2a51.2 51.2 0 0 1-51.2 51.2z m-325.8368-134.9632a51.2 51.2 0 0 1 0-72.3968l36.1984-36.1984a51.2 51.2 0 0 1 72.3968 72.3968l-36.1984 36.1984a51.2 51.2 0 0 1-72.3968 0zM51.2 512a51.2 51.2 0 0 1 51.2-51.2h51.2a51.2 51.2 0 1 1 0 102.4H102.4a51.2 51.2 0 0 1-51.2-51.2z m134.9632-325.8368a51.2 51.2 0 0 1 72.3968 0l36.1984 36.1984a51.2 51.2 0 0 1-72.3968 72.3968l-36.1984-36.1984a51.2 51.2 0 0 1 0-72.3968z" fill="" p-id="2093"></path></svg>